<svg xmlns="http://www.w3.org/2000/svg" width="600" height="600" viewBox="0 0 600 600" version="1.1"><path d="M 0 300 L 0 600 46 600 L 92 600 92 544.500 L 92 489 84.500 489 L 77 489 77 452.500 L 77 416 84.500 416 L 92 416 92 375 L 92 334 99 334 L 106 334 106 305 L 106 276 111 276 L 116 276 116 261.500 L 116 247 125.500 247 L 135 247 135 232.500 L 135 218 142.500 218 L 150 218 150 210.500 L 150 203 155 203 L 160 203 160 198.500 L 160 194 167 194 L 174 194 174 184 L 174 174 184 174 L 194 174 194 167 L 194 160 206 160 L 218 160 218 155 L 218 150 317 150 L 416 150 416 155 L 416 160 430.500 160 L 445 160 445 167 L 445 174 452.500 174 L 460 174 460 188.500 L 460 203 469.500 203 L 479 203 479 225 L 479 247 489 247 L 499 247 499 276 L 499 305 489 305 L 479 305 479 341 L 479 377 469.500 377 L 460 377 460 406 L 460 435 469.500 435 L 479 435 479 462 L 479 489 489 489 L 499 489 499 544.509 L 499 600.018 549.750 599.759 L 600.500 599.500 600.752 299.750 L 601.003 0 518.002 0 L 435 0 435 9.500 L 435 19 440 19 L 445 19 445 26.500 L 445 34 440 34 L 435 34 435 48.500 L 435 63 425.500 63 L 416 63 416 68 L 416 73 409 73 L 402 73 402 94.500 L 402 116 319.500 116 L 237 116 237 94.500 L 237 73 227.500 73 L 218 73 218 60.500 L 218 48 206 48 L 194 48 194 33.500 L 194 19 198.500 19 L 203 19 203 9.500 L 203 0 101.500 0 L 0 0 0 300 M 237 9.500 L 237 19 249 19 L 261 19 261 26.500 L 261 34 268.500 34 L 276 34 276 41 L 276 48 283 48 L 290 48 290 41 L 290 34 297.500 34 L 305 34 305 17 L 305 0 271 0 L 237 0 237 9.500 M 334 9.500 L 334 19 341 19 L 348 19 348 33.500 L 348 48 353 48 L 358 48 358 41 L 358 34 367.500 34 L 377 34 377 26.500 L 377 19 389.500 19 L 402 19 402 9.500 L 402 0 368 0 L 334 0 334 9.500 M 0.493 300.500 C 0.493 465.500, 0.609 532.851, 0.750 450.169 C 0.891 367.487, 0.891 232.487, 0.750 150.169 C 0.609 67.851, 0.493 135.500, 0.493 300.500" stroke="none" fill="#7f550a" fill-rule="evenodd"/><path d="M 358 297.500 L 358 305 346 305 L 334 305 334 326.500 L 334 348 355.500 348 L 377 348 377 326.500 L 377 305 389.500 305 L 402 305 402 310 L 402 315 409 315 L 416 315 416 302.500 L 416 290 387 290 L 358 290 358 297.500 M 160 310 L 160 315 167 315 L 174 315 174 324.500 L 174 334 184 334 L 194 334 194 341 L 194 348 215.500 348 L 237 348 237 326.500 L 237 305 198.500 305 L 160 305 160 310 M 218 409 L 218 416 227.500 416 L 237 416 237 409 L 237 402 227.500 402 L 218 402 218 409 M 348 409 L 348 416 353 416 L 358 416 358 409 L 358 402 353 402 L 348 402 348 409 M 261 425.500 L 261 435 268.500 435 L 276 435 276 440 L 276 445 283 445 L 290 445 290 430.500 L 290 416 275.500 416 L 261 416 261 425.500 M 305 430.500 L 305 445 312 445 L 319 445 319 440 L 319 435 326.500 435 L 334 435 334 425.500 L 334 416 319.500 416 L 305 416 305 430.500 M 237 440 L 237 445 242 445 L 247 445 247 440 L 247 435 242 435 L 237 435 237 440 M 334 452.500 L 334 460 341 460 L 348 460 348 452.500 L 348 445 341 445 L 334 445 334 452.500 M 261 467 L 261 474 268.500 474 L 276 474 276 467 L 276 460 268.500 460 L 261 460 261 467 M 290 481.500 L 290 489 297.500 489 L 305 489 305 481.500 L 305 474 297.500 474 L 290 474 290 481.500" stroke="none" fill="#ffffff" fill-rule="evenodd"/><path d="M 377 397 L 377 402 367.500 402 L 358 402 358 409 L 358 416 346 416 L 334 416 334 425.500 L 334 435 326.500 435 L 319 435 319 440 L 319 445 312 445 L 305 445 305 430.500 L 305 416 297.500 416 L 290 416 290 430.500 L 290 445 283 445 L 276 445 276 440 L 276 435 268.500 435 L 261 435 261 425.500 L 261 416 239.500 416 L 218 416 218 409 L 218 402 210.500 402 L 203 402 203 409 L 203 416 210.500 416 L 218 416 218 425.500 L 218 435 232.500 435 L 247 435 247 447.500 L 247 460 261.500 460 L 276 460 276 474.500 L 276 489 283 489 L 290 489 290 481.500 L 290 474 297.500 474 L 305 474 305 481.500 L 305 489 312 489 L 319 489 319 481.500 L 319 474 326.500 474 L 334 474 334 459.500 L 334 445 346 445 L 358 445 358 430.500 L 358 416 367.500 416 L 377 416 377 409 L 377 402 384.500 402 L 392 402 392 397 L 392 392 384.500 392 L 377 392 377 397" stroke="none" fill="#5d0303" fill-rule="evenodd"/><path d="M 203 9.500 L 203 19 198.500 19 L 194 19 194 33.500 L 194 48 206 48 L 218 48 218 60.500 L 218 73 227.500 73 L 237 73 237 94.500 L 237 116 319.500 116 L 402 116 402 94.500 L 402 73 409 73 L 416 73 416 68 L 416 63 425.500 63 L 435 63 435 48.500 L 435 34 440 34 L 445 34 445 26.500 L 445 19 440 19 L 435 19 435 9.500 L 435 0 418.500 0 L 402 0 402 9.500 L 402 19 389.500 19 L 377 19 377 26.500 L 377 34 367.500 34 L 358 34 358 41 L 358 48 353 48 L 348 48 348 33.500 L 348 19 341 19 L 334 19 334 9.500 L 334 0 319.500 0 L 305 0 305 17 L 305 34 297.500 34 L 290 34 290 41 L 290 48 283 48 L 276 48 276 41 L 276 34 268.500 34 L 261 34 261 26.500 L 261 19 249 19 L 237 19 237 9.500 L 237 0 220 0 L 203 0 203 9.500 M 218 41 L 218 48 227.500 48 L 237 48 237 41 L 237 34 227.500 34 L 218 34 218 41 M 319 41 L 319 48 312 48 L 305 48 305 55.500 L 305 63 312 63 L 319 63 319 55.500 L 319 48 326.500 48 L 334 48 334 41 L 334 34 326.500 34 L 319 34 319 41 M 402 41 L 402 48 409 48 L 416 48 416 41 L 416 34 409 34 L 402 34 402 41" stroke="none" fill="#bdc231" fill-rule="evenodd"/><path d="M 218 41 L 218 48 227.500 48 L 237 48 237 41 L 237 34 227.500 34 L 218 34 218 41 M 319 41 L 319 48 312 48 L 305 48 305 55.500 L 305 63 312 63 L 319 63 319 55.500 L 319 48 326.500 48 L 334 48 334 41 L 334 34 326.500 34 L 319 34 319 41 M 402 41 L 402 48 409 48 L 416 48 416 41 L 416 34 409 34 L 402 34 402 41" stroke="none" fill="#7f46ab" fill-rule="evenodd"/><path d="M 218 155 L 218 160 206 160 L 194 160 194 167 L 194 174 184 174 L 174 174 174 184 L 174 194 167 194 L 160 194 160 198.500 L 160 203 155 203 L 150 203 150 210.500 L 150 218 142.500 218 L 135 218 135 232.500 L 135 247 125.500 247 L 116 247 116 261.500 L 116 276 111 276 L 106 276 106 305 L 106 334 99 334 L 92 334 92 375 L 92 416 84.500 416 L 77 416 77 452.500 L 77 489 84.500 489 L 92 489 92 544.500 L 92 600 104 600 L 116 600 116 595 L 116 590 111 590 L 106 590 106 561 L 106 532 128 532 L 150 532 150 539.500 L 150 547 176.500 547 L 203 547 203 561.500 L 203 576 210.500 576 L 218 576 218 583 L 218 590 227.500 590 L 237 590 237 583 L 237 576 249 576 L 261 576 261 566 L 261 556 254 556 L 247 556 247 551.500 L 247 547 254 547 L 261 547 261 539.500 L 261 532 210.500 532 L 160 532 160 525 L 160 518 138 518 L 116 518 116 510.500 L 116 503 111 503 L 106 503 106 488.500 L 106 474 99 474 L 92 474 92 454.500 L 92 435 99 435 L 106 435 106 391.500 L 106 348 111 348 L 116 348 116 312 L 116 276 125.500 276 L 135 276 135 268.500 L 135 261 142.500 261 L 150 261 150 246.500 L 150 232 155 232 L 160 232 160 225 L 160 218 167 218 L 174 218 174 210.500 L 174 203 184 203 L 194 203 194 198.500 L 194 194 198.500 194 L 203 194 203 184 L 203 174 220 174 L 237 174 237 167 L 237 160 319.500 160 L 402 160 402 167 L 402 174 418.500 174 L 435 174 435 184 L 435 194 440 194 L 445 194 445 206 L 445 218 452.500 218 L 460 218 460 232.500 L 460 247 469.500 247 L 479 247 479 268.500 L 479 290 469.500 290 L 460 290 460 333.500 L 460 377 452.500 377 L 445 377 445 411 L 445 445 452.500 445 L 460 445 460 452.500 L 460 460 452.500 460 L 445 460 445 467 L 445 474 440 474 L 435 474 435 481.500 L 435 489 425.500 489 L 416 489 416 496 L 416 503 409 503 L 402 503 402 510.500 L 402 518 375 518 L 348 518 348 525 L 348 532 353 532 L 358 532 358 539.500 L 358 547 353 547 L 348 547 348 551.500 L 348 556 362.500 556 L 377 556 377 566 L 377 576 384.500 576 L 392 576 392 566 L 392 556 397 556 L 402 556 402 544 L 402 532 409 532 L 416 532 416 525 L 416 518 425.500 518 L 435 518 435 510.500 L 435 503 440 503 L 445 503 445 496 L 445 489 462 489 L 479 489 479 544.500 L 479 600 489 600 L 499 600 499 544.500 L 499 489 489 489 L 479 489 479 462 L 479 435 469.500 435 L 460 435 460 406 L 460 377 469.500 377 L 479 377 479 341 L 479 305 489 305 L 499 305 499 276 L 499 247 489 247 L 479 247 479 225 L 479 203 469.500 203 L 460 203 460 188.500 L 460 174 452.500 174 L 445 174 445 167 L 445 160 430.500 160 L 416 160 416 155 L 416 150 317 150 L 218 150 218 155 M 237 210.500 L 237 218 227.500 218 L 218 218 218 232.500 L 218 247 210.500 247 L 203 247 203 254 L 203 261 188.500 261 L 174 261 174 268.500 L 174 276 188.500 276 L 203 276 203 268.500 L 203 261 210.500 261 L 218 261 218 254 L 218 247 227.500 247 L 237 247 237 232.500 L 237 218 242 218 L 247 218 247 225 L 247 232 254 232 L 261 232 261 239.500 L 261 247 268.500 247 L 276 247 276 239.500 L 276 232 268.500 232 L 261 232 261 225 L 261 218 254 218 L 247 218 247 210.500 L 247 203 242 203 L 237 203 237 210.500 M 348 210.500 L 348 218 341 218 L 334 218 334 225 L 334 232 326.500 232 L 319 232 319 239.500 L 319 247 326.500 247 L 334 247 334 239.500 L 334 232 341 232 L 348 232 348 225 L 348 218 353 218 L 358 218 358 225 L 358 232 367.500 232 L 377 232 377 239.500 L 377 247 389.500 247 L 402 247 402 239.500 L 402 232 389.500 232 L 377 232 377 225 L 377 218 367.500 218 L 358 218 358 210.500 L 358 203 353 203 L 348 203 348 210.500 M 348 283 L 348 290 341 290 L 334 290 334 297.500 L 334 305 326.500 305 L 319 305 319 310 L 319 315 312 315 L 305 315 305 331.500 L 305 348 312 348 L 319 348 319 353 L 319 358 355.500 358 L 392 358 392 367.500 L 392 377 375 377 L 358 377 358 384.500 L 358 392 346 392 L 334 392 334 397 L 334 402 290.500 402 L 247 402 247 397 L 247 392 225 392 L 203 392 203 384.500 L 203 377 181.500 377 L 160 377 160 389.500 L 160 402 167 402 L 174 402 174 409 L 174 416 184 416 L 194 416 194 425.500 L 194 435 198.500 435 L 203 435 203 440 L 203 445 210.500 445 L 218 445 218 452.500 L 218 460 227.500 460 L 237 460 237 467 L 237 474 242 474 L 247 474 247 481.500 L 247 489 254 489 L 261 489 261 496 L 261 503 283 503 L 305 503 305 510.500 L 305 518 319.500 518 L 334 518 334 503.500 L 334 489 341 489 L 348 489 348 481.500 L 348 474 353 474 L 358 474 358 459.500 L 358 445 367.500 445 L 377 445 377 440 L 377 435 384.500 435 L 392 435 392 425.500 L 392 416 397 416 L 402 416 402 409 L 402 402 409 402 L 416 402 416 380 L 416 358 404 358 L 392 358 392 353 L 392 348 404 348 L 416 348 416 341 L 416 334 425.500 334 L 435 334 435 305 L 435 276 391.500 276 L 348 276 348 283 M 150 312 L 150 334 155 334 L 160 334 160 341 L 160 348 167 348 L 174 348 174 353 L 174 358 217.500 358 L 261 358 261 353 L 261 348 268.500 348 L 276 348 276 326.500 L 276 305 261.500 305 L 247 305 247 297.500 L 247 290 198.500 290 L 150 290 150 312 M 358 297.500 L 358 305 346 305 L 334 305 334 326.500 L 334 348 355.500 348 L 377 348 377 341 L 377 334 389.500 334 L 402 334 402 324.500 L 402 315 409 315 L 416 315 416 302.500 L 416 290 387 290 L 358 290 358 297.500 M 160 310 L 160 315 167 315 L 174 315 174 324.500 L 174 334 184 334 L 194 334 194 341 L 194 348 227.500 348 L 261 348 261 331.500 L 261 315 249 315 L 237 315 237 310 L 237 305 198.500 305 L 160 305 160 310 M 377 397 L 377 402 362.500 402 L 348 402 348 409 L 348 416 292.500 416 L 237 416 237 409 L 237 402 220 402 L 203 402 203 409 L 203 416 210.500 416 L 218 416 218 425.500 L 218 435 227.500 435 L 237 435 237 440 L 237 445 242 445 L 247 445 247 452.500 L 247 460 254 460 L 261 460 261 467 L 261 474 268.500 474 L 276 474 276 481.500 L 276 489 297.500 489 L 319 489 319 481.500 L 319 474 326.500 474 L 334 474 334 467 L 334 460 341 460 L 348 460 348 452.500 L 348 445 353 445 L 358 445 358 430.500 L 358 416 367.500 416 L 377 416 377 409 L 377 402 384.500 402 L 392 402 392 397 L 392 392 384.500 392 L 377 392 377 397" stroke="none" fill="#000000" fill-rule="evenodd"/><path d="M 261 167 L 261 174 275.500 174 L 290 174 290 184 L 290 194 319 194 L 348 194 348 177 L 348 160 304.500 160 L 261 160 261 167 M 174 254 L 174 261 167 261 L 160 261 160 275.500 L 160 290 181.500 290 L 203 290 203 283 L 203 276 188.500 276 L 174 276 174 268.500 L 174 261 188.500 261 L 203 261 203 254 L 203 247 188.500 247 L 174 247 174 254 M 377 254 L 377 261 362.500 261 L 348 261 348 268.500 L 348 276 382 276 L 416 276 416 261.500 L 416 247 396.500 247 L 377 247 377 254 M 135 336.500 L 135 358 147.500 358 L 160 358 160 346 L 160 334 155 334 L 150 334 150 324.500 L 150 315 142.500 315 L 135 315 135 336.500 M 392 353 L 392 358 375 358 L 358 358 358 367.500 L 358 377 375 377 L 392 377 392 367.500 L 392 358 404 358 L 416 358 416 353 L 416 348 404 348 L 392 348 392 353 M 194 440 L 194 445 177 445 L 160 445 160 452.500 L 160 460 177 460 L 194 460 194 474.500 L 194 489 198.500 489 L 203 489 203 503.500 L 203 518 210.500 518 L 218 518 218 525 L 218 532 239.500 532 L 261 532 261 539.500 L 261 547 254 547 L 247 547 247 551.500 L 247 556 254 556 L 261 556 261 566 L 261 576 249 576 L 237 576 237 583 L 237 590 227.500 590 L 218 590 218 595 L 218 600 261.500 600 L 305 600 305 578 L 305 556 312 556 L 319 556 319 537 L 319 518 312 518 L 305 518 305 510.500 L 305 503 283 503 L 261 503 261 496 L 261 489 254 489 L 247 489 247 481.500 L 247 474 242 474 L 237 474 237 467 L 237 460 227.500 460 L 218 460 218 452.500 L 218 445 210.500 445 L 203 445 203 440 L 203 435 198.500 435 L 194 435 194 440 M 392 496 L 392 518 397 518 L 402 518 402 510.500 L 402 503 409 503 L 416 503 416 488.500 L 416 474 404 474 L 392 474 392 496 M 416 525 L 416 532 409 532 L 402 532 402 554 L 402 576 409 576 L 416 576 416 583 L 416 590 425.500 590 L 435 590 435 583 L 435 576 440 576 L 445 576 445 547 L 445 518 430.500 518 L 416 518 416 525" stroke="none" fill="#b69f20" fill-rule="evenodd"/><path d="M 237 167 L 237 174 220 174 L 203 174 203 184 L 203 194 198.500 194 L 194 194 194 198.500 L 194 203 184 203 L 174 203 174 210.500 L 174 218 167 218 L 160 218 160 225 L 160 232 155 232 L 150 232 150 246.500 L 150 261 142.500 261 L 135 261 135 268.500 L 135 276 125.500 276 L 116 276 116 312 L 116 348 111 348 L 106 348 106 391.500 L 106 435 99 435 L 92 435 92 454.500 L 92 474 99 474 L 106 474 106 488.500 L 106 503 111 503 L 116 503 116 510.500 L 116 518 138 518 L 160 518 160 525 L 160 532 189 532 L 218 532 218 525 L 218 518 210.500 518 L 203 518 203 503.500 L 203 489 198.500 489 L 194 489 194 474.500 L 194 460 177 460 L 160 460 160 452.500 L 160 445 177 445 L 194 445 194 430.500 L 194 416 184 416 L 174 416 174 409 L 174 402 167 402 L 160 402 160 389.500 L 160 377 181.500 377 L 203 377 203 384.500 L 203 392 225 392 L 247 392 247 397 L 247 402 290.500 402 L 334 402 334 397 L 334 392 346 392 L 358 392 358 375 L 358 358 338.500 358 L 319 358 319 353 L 319 348 312 348 L 305 348 305 331.500 L 305 315 312 315 L 319 315 319 310 L 319 305 326.500 305 L 334 305 334 297.500 L 334 290 341 290 L 348 290 348 275.500 L 348 261 362.500 261 L 377 261 377 246.500 L 377 232 389.500 232 L 402 232 402 239.500 L 402 247 409 247 L 416 247 416 261.500 L 416 276 425.500 276 L 435 276 435 305 L 435 334 425.500 334 L 416 334 416 368 L 416 402 409 402 L 402 402 402 409 L 402 416 397 416 L 392 416 392 425.500 L 392 435 384.500 435 L 377 435 377 440 L 377 445 367.500 445 L 358 445 358 459.500 L 358 474 353 474 L 348 474 348 481.500 L 348 489 341 489 L 334 489 334 503.500 L 334 518 326.500 518 L 319 518 319 537 L 319 556 312 556 L 305 556 305 578 L 305 600 392 600 L 479 600 479 544.500 L 479 489 462 489 L 445 489 445 496 L 445 503 440 503 L 435 503 435 510.500 L 435 518 440 518 L 445 518 445 547 L 445 576 440 576 L 435 576 435 583 L 435 590 425.500 590 L 416 590 416 583 L 416 576 409 576 L 402 576 402 566 L 402 556 397 556 L 392 556 392 566 L 392 576 384.500 576 L 377 576 377 566 L 377 556 362.500 556 L 348 556 348 551.500 L 348 547 353 547 L 358 547 358 539.500 L 358 532 353 532 L 348 532 348 525 L 348 518 370 518 L 392 518 392 496 L 392 474 404 474 L 416 474 416 481.500 L 416 489 425.500 489 L 435 489 435 481.500 L 435 474 440 474 L 445 474 445 467 L 445 460 452.500 460 L 460 460 460 452.500 L 460 445 452.500 445 L 445 445 445 411 L 445 377 452.500 377 L 460 377 460 333.500 L 460 290 469.500 290 L 479 290 479 268.500 L 479 247 469.500 247 L 460 247 460 232.500 L 460 218 452.500 218 L 445 218 445 206 L 445 194 440 194 L 435 194 435 184 L 435 174 418.500 174 L 402 174 402 167 L 402 160 375 160 L 348 160 348 177 L 348 194 319 194 L 290 194 290 184 L 290 174 275.500 174 L 261 174 261 167 L 261 160 249 160 L 237 160 237 167 M 237 210.500 L 237 218 227.500 218 L 218 218 218 232.500 L 218 247 196 247 L 174 247 174 254 L 174 261 167 261 L 160 261 160 275.500 L 160 290 155 290 L 150 290 150 302.500 L 150 315 142.500 315 L 135 315 135 336.500 L 135 358 147.500 358 L 160 358 160 353 L 160 348 167 348 L 174 348 174 353 L 174 358 217.500 358 L 261 358 261 353 L 261 348 268.500 348 L 276 348 276 326.500 L 276 305 261.500 305 L 247 305 247 297.500 L 247 290 225 290 L 203 290 203 275.500 L 203 261 210.500 261 L 218 261 218 254 L 218 247 227.500 247 L 237 247 237 232.500 L 237 218 242 218 L 247 218 247 225 L 247 232 254 232 L 261 232 261 239.500 L 261 247 268.500 247 L 276 247 276 239.500 L 276 232 268.500 232 L 261 232 261 225 L 261 218 254 218 L 247 218 247 210.500 L 247 203 242 203 L 237 203 237 210.500 M 348 210.500 L 348 218 341 218 L 334 218 334 225 L 334 232 326.500 232 L 319 232 319 239.500 L 319 247 326.500 247 L 334 247 334 239.500 L 334 232 341 232 L 348 232 348 225 L 348 218 353 218 L 358 218 358 225 L 358 232 367.500 232 L 377 232 377 225 L 377 218 367.500 218 L 358 218 358 210.500 L 358 203 353 203 L 348 203 348 210.500 M 106 561 L 106 590 111 590 L 116 590 116 595 L 116 600 167 600 L 218 600 218 588 L 218 576 210.500 576 L 203 576 203 561.500 L 203 547 176.500 547 L 150 547 150 539.500 L 150 532 128 532 L 106 532 106 561" stroke="none" fill="#c0af1e" fill-rule="evenodd"/><path d="M 377 319.500 L 377 334 389.500 334 L 402 334 402 319.500 L 402 305 389.500 305 L 377 305 377 319.500 M 237 331.500 L 237 348 249 348 L 261 348 261 331.500 L 261 315 249 315 L 237 315 237 331.500" stroke="none" fill="#b00f0f" fill-rule="evenodd"/></svg>